<?xml version="1.0" standalone="no"?>
<!DOCTYPE svg PUBLIC "-//W3C//DTD SVG 20010904//EN"
 "http://www.w3.org/TR/2001/REC-SVG-20010904/DTD/svg10.dtd">
<svg version="1.0" xmlns="http://www.w3.org/2000/svg"
 width="769.000000pt" height="512.000000pt" viewBox="0 0 769.000000 512.000000"
 preserveAspectRatio="xMidYMid meet">

<g transform="translate(0.000000,512.000000) scale(0.100000,-0.100000)"
fill="#000000" stroke="none">
<path d="M4050 4779 c-300 -181 -545 -335 -545 -342 0 -6 356 -605 790 -1329
l790 -1317 764 -1 763 0 -14 22 c-8 13 -457 760 -998 1661 -540 900 -988 1637
-994 1636 -6 0 -256 -149 -556 -330z"/>
<path d="M2711 3600 c-299 -181 -548 -333 -553 -338 -6 -6 168 -304 429 -738
l439 -729 762 -3 762 -2 0 -258 0 -258 -68 33 c-101 48 -182 67 -297 67 -122
0 -201 -19 -312 -75 -219 -110 -358 -326 -370 -575 -20 -392 284 -714 677
-716 111 -1 187 15 287 62 l82 38 3 -31 3 -32 158 -3 157 -3 0 876 0 875 -158
0 -159 0 -642 1070 c-354 589 -646 1070 -649 1069 -4 0 -252 -148 -551 -329z
m1612 -2560 c76 -29 157 -104 196 -182 29 -57 31 -69 31 -167 0 -90 -4 -113
-24 -156 -37 -80 -98 -140 -183 -182 -68 -34 -82 -37 -156 -36 -60 0 -98 6
-140 22 -76 30 -164 111 -202 188 -28 53 -30 67 -30 163 0 94 3 111 27 161 89
180 292 260 481 189z"/>
<path d="M1370 2418 c-300 -181 -551 -333 -558 -337 -10 -6 8 -43 70 -147 l84
-139 762 -3 c419 -1 762 0 762 3 0 6 -560 938 -569 946 -3 4 -251 -142 -551
-323z"/>
<path d="M7365 1928 c-110 -40 -164 -160 -120 -266 79 -188 357 -148 381 54 9
76 -27 152 -91 190 -53 30 -123 40 -170 22z m143 -46 c97 -45 114 -191 30
-269 -77 -72 -205 -48 -255 47 -28 52 -29 91 -4 145 43 93 131 123 229 77z"/>
<path d="M7340 1735 c0 -87 3 -105 15 -105 11 0 15 11 15 39 0 22 5 43 10 46
20 12 51 -7 76 -46 15 -24 32 -39 45 -39 19 0 18 3 -11 44 l-30 45 25 25 c30
30 32 49 5 76 -16 16 -33 20 -85 20 l-65 0 0 -105z m126 60 c10 -25 -16 -45
-57 -45 -37 0 -39 2 -39 30 0 29 2 30 45 30 32 0 47 -5 51 -15z"/>
<path d="M2560 1530 l0 -260 -57 29 c-231 116 -486 101 -698 -40 -283 -190
-383 -558 -235 -864 146 -301 478 -452 803 -364 33 9 117 45 180 77 4 2 7 -12
7 -32 l0 -36 155 0 155 0 0 875 0 875 -155 0 -155 0 0 -260z m-289 -474 c108
-25 207 -104 257 -206 24 -49 27 -66 27 -160 0 -96 -2 -110 -30 -163 -17 -35
-53 -80 -87 -112 -186 -172 -477 -117 -590 113 -30 61 -33 74 -33 162 0 82 4
103 27 152 49 106 139 183 248 212 69 19 110 19 181 2z"/>
<path d="M3030 1630 l0 -150 170 0 170 0 0 150 0 150 -170 0 -170 0 0 -150z"/>
<path d="M6891 1375 c-226 -51 -363 -224 -349 -441 6 -84 32 -144 86 -198 75
-76 161 -111 418 -171 235 -54 294 -85 294 -155 0 -42 -41 -87 -100 -111 -50
-19 -202 -17 -267 5 -57 19 -109 68 -119 114 -3 15 -7 33 -10 40 -2 9 -47 12
-179 12 l-176 0 6 -47 c20 -145 88 -244 215 -312 220 -117 600 -112 792 10 98
63 160 161 179 283 25 160 -45 291 -198 366 -37 18 -150 53 -280 85 -235 59
-300 85 -321 129 -12 23 -12 34 0 64 21 56 64 75 174 80 153 7 221 -27 247
-125 l11 -43 168 0 168 0 0 28 c0 39 -26 136 -49 180 -44 85 -153 163 -276
197 -85 24 -348 30 -434 10z"/>
<path d="M595 1371 c-174 -29 -324 -113 -433 -244 -54 -65 -127 -213 -143
-292 -17 -83 -15 -228 5 -305 9 -36 35 -103 58 -150 54 -110 177 -237 283
-292 198 -103 444 -107 628 -10 29 15 55 28 60 30 4 2 7 -13 7 -32 l0 -37 158
3 157 3 3 648 2 647 -160 0 -160 0 0 -35 0 -35 -68 34 c-119 60 -277 86 -397
67z m252 -341 c74 -34 141 -99 180 -172 26 -49 28 -62 28 -163 0 -98 -3 -116
-27 -167 -70 -149 -243 -239 -400 -208 -129 25 -226 100 -281 218 -27 58 -31
78 -31 152 -1 75 3 93 30 150 37 79 78 128 142 169 106 68 242 76 359 21z"/>
<path d="M3030 710 l0 -670 170 0 170 0 0 670 0 670 -170 0 -170 0 0 -670z"/>
<path d="M5545 1366 c-100 -20 -175 -51 -260 -107 -284 -190 -384 -557 -235
-864 105 -217 303 -357 541 -384 135 -15 292 15 396 75 23 13 44 24 47 24 3 0
6 -16 6 -35 l0 -35 155 0 155 0 0 650 0 650 -155 0 -155 0 0 -36 c0 -20 -3
-34 -7 -32 -5 2 -30 15 -58 29 -124 66 -295 91 -430 65z m259 -326 c79 -30
164 -111 202 -192 26 -56 29 -74 29 -158 0 -88 -3 -101 -33 -162 -140 -284
-534 -284 -674 0 -30 61 -33 74 -33 162 0 84 3 102 29 157 30 65 105 147 164
177 95 49 211 55 316 16z"/>
</g>
</svg>
