<?xml version="1.0" standalone="no"?>
<!DOCTYPE svg PUBLIC "-//W3C//DTD SVG 20010904//EN"
 "http://www.w3.org/TR/2001/REC-SVG-20010904/DTD/svg10.dtd">
<svg version="1.0" xmlns="http://www.w3.org/2000/svg"
 width="500.000000pt" height="500.000000pt" viewBox="0 0 500.000000 500.000000"
 preserveAspectRatio="xMidYMid meet">

<g transform="translate(0.000000,500.000000) scale(0.100000,-0.100000)"
fill="#000000" stroke="none">
<path d="M3115 3723 l-411 -3 -17 -29 c-21 -37 -13 -41 86 -42 40 -1 99 -4
132 -8 l60 -6 -100 -8 c-55 -4 -128 -7 -161 -7 -61 0 -62 0 -88 -41 -15 -22
-26 -42 -24 -44 2 -2 70 -8 152 -14 82 -6 151 -12 153 -14 2 -3 -74 -8 -169
-12 l-174 -7 -27 -41 -26 -42 154 -10 c159 -11 217 -25 104 -25 -35 0 -114 -3
-176 -7 l-112 -6 -25 -38 c-19 -27 -22 -39 -12 -42 7 -3 79 -8 160 -12 80 -4
148 -11 151 -15 2 -4 -75 -10 -173 -13 l-177 -7 -27 -32 -27 -33 -1 27 c0 15
-3 29 -7 31 -5 2 -127 -2 -273 -9 -146 -7 -289 -13 -319 -13 -30 -1 -52 -3
-50 -5 2 -2 223 -19 491 -37 268 -18 484 -36 480 -40 -4 -3 -205 -14 -447 -24
-412 -16 -646 -30 -565 -34 19 -1 226 -15 460 -31 234 -16 440 -30 459 -30 19
0 31 -3 28 -6 -4 -4 -237 -17 -518 -30 -281 -12 -513 -25 -517 -28 -3 -3 24
-6 59 -7 35 0 73 -2 84 -4 11 -2 63 -6 115 -9 52 -3 223 -15 380 -26 157 -11
298 -20 314 -20 16 0 27 -3 24 -6 -3 -3 -240 -15 -527 -28 -287 -13 -524 -26
-528 -29 -3 -4 29 -7 73 -8 43 0 90 -2 104 -4 14 -2 201 -16 415 -30 215 -15
391 -28 393 -29 4 -5 -180 -15 -615 -33 -233 -9 -423 -20 -423 -24 0 -4 8 -7
18 -7 20 1 240 -11 297 -17 22 -2 78 -7 125 -10 326 -21 503 -35 508 -40 3 -3
-28 -6 -69 -7 -41 -1 -81 -2 -89 -3 -8 -1 -97 -5 -198 -9 l-183 -8 3 -32 3
-31 175 -12 c215 -16 303 -24 298 -28 -2 -2 -90 -6 -196 -10 -107 -4 -208 -9
-225 -11 -18 -1 -37 -3 -42 -3 -7 -1 -9 -16 -7 -36 4 -30 8 -35 31 -36 14 -1
35 -3 46 -4 11 -1 79 -6 150 -10 171 -10 201 -23 60 -26 -60 -1 -114 -3 -120
-4 -5 -2 -45 -3 -88 -4 l-78 -1 3 -42 c4 -48 -10 -44 177 -54 75 -3 138 -8
140 -10 11 -10 -15 -13 -133 -15 -70 0 -140 -4 -154 -8 -24 -7 -26 -11 -23
-47 1 -21 4 -40 4 -40 5 -3 148 -14 191 -14 27 0 47 -2 44 -5 -7 -7 -63 -12
-160 -14 l-78 -1 0 -35 0 -35 433 1 c556 1 766 10 871 39 247 67 417 193 507
374 41 83 44 95 44 170 0 102 -25 156 -112 242 l-62 62 82 47 c112 65 232 186
278 280 95 194 14 416 -176 479 -63 22 -110 23 -610 19z m269 -374 c35 -16 49
-58 41 -119 -8 -59 -38 -100 -104 -142 -45 -28 -46 -28 -209 -28 -95 0 -162 4
-160 9 2 5 37 70 78 145 51 91 81 136 95 139 45 10 236 6 259 -4z m-225 -585
c38 -31 48 -78 32 -149 -16 -73 -71 -133 -153 -171 -60 -27 -71 -29 -246 -34
-100 -3 -182 -2 -182 2 0 5 42 91 92 193 l93 185 167 0 c164 0 167 0 197 -26z"/>
<path d="M1927 3713 c-8 -12 51 -19 241 -29 109 -6 122 -5 122 10 0 13 -12 16
-67 16 -38 0 -118 3 -179 6 -72 5 -113 3 -117 -3z"/>
<path d="M4151 3688 c-139 -38 -167 -212 -46 -283 111 -66 245 7 245 134 0
100 -101 176 -199 149z m126 -54 c96 -73 36 -227 -87 -227 -79 0 -130 54 -130
137 0 38 5 51 35 80 19 19 44 37 57 39 40 8 92 -4 125 -29z"/>
<path d="M4120 3534 c0 -76 2 -85 18 -82 13 2 16 11 14 36 -3 28 -1 32 20 32
18 0 29 -9 41 -35 11 -24 24 -35 38 -35 l21 0 -22 34 c-20 34 -21 35 -2 45 28
15 35 40 17 67 -14 21 -23 24 -80 24 l-65 0 0 -86z m104 60 c9 -3 16 -15 16
-25 0 -16 -8 -19 -45 -19 -37 0 -45 3 -45 18 0 10 3 22 7 25 8 9 46 9 67 1z"/>
<path d="M2035 3590 c-141 -6 -118 -16 60 -25 66 -3 139 -8 163 -12 40 -5 42
-4 42 21 0 29 7 29 -265 16z"/>
<path d="M2055 3466 c-188 -9 -218 -12 -165 -18 96 -11 420 -31 424 -27 9 9
-7 59 -18 57 -6 -1 -114 -6 -241 -12z"/>
<path d="M2045 3339 c-71 -3 -166 -7 -209 -8 -44 0 -77 -3 -75 -5 2 -3 110
-12 239 -20 129 -9 256 -18 283 -21 42 -5 47 -4 47 14 0 56 1 56 -285 40z"/>
<path d="M1560 2565 c-129 -6 -224 -13 -210 -14 14 -1 34 -4 45 -6 11 -1 70
-6 130 -9 61 -4 140 -9 177 -12 66 -6 66 -6 82 25 9 17 15 30 14 29 -2 -1
-109 -7 -238 -13z"/>
<path d="M1465 2435 c-121 -6 -209 -12 -195 -13 100 -7 306 -23 361 -28 62 -5
67 -4 82 20 22 33 21 36 -5 34 -13 -1 -122 -7 -243 -13z"/>
<path d="M1430 2309 c-85 -4 -180 -9 -210 -11 -30 -2 49 -11 175 -20 229 -16
230 -16 248 4 9 11 17 24 17 29 0 10 -3 10 -230 -2z"/>
<path d="M1335 2179 c-60 -4 -137 -8 -170 -9 -55 -2 -9 -7 341 -33 58 -4 63
-3 73 20 6 13 11 26 11 29 0 6 -59 4 -255 -7z"/>
<path d="M1317 2055 c-2 -2 -271 -15 -319 -15 -16 0 -28 -4 -28 -9 0 -4 118
-11 262 -15 245 -7 263 -7 275 10 7 10 13 22 13 26 0 7 -194 9 -203 3z"/>
<path d="M1830 1575 l0 -295 50 0 c46 0 50 2 50 24 l0 25 56 -30 c31 -16 70
-29 86 -29 131 0 241 128 225 261 -20 166 -194 260 -322 173 -20 -13 -38 -24
-40 -24 -3 0 -5 43 -5 95 l0 95 -50 0 -50 0 0 -295z m327 12 c76 -84 19 -207
-96 -207 -78 0 -131 51 -131 126 0 79 55 127 139 121 47 -3 59 -9 88 -40z"/>
<path d="M2872 1578 l3 -293 53 -3 52 -3 0 295 0 296 -55 0 -55 0 2 -292z"/>
<path d="M167 1716 c-45 -22 -47 -22 -47 -4 0 17 -6 19 -53 16 l-52 -3 0 -220
0 -220 53 -3 52 -3 0 141 c0 183 12 210 95 210 18 0 43 -9 56 -19 23 -18 24
-25 27 -175 l3 -156 50 0 49 0 1 123 c2 175 0 197 -24 247 -16 34 -33 51 -67
68 -56 28 -85 28 -143 -2z"/>
<path d="M640 1731 c-113 -37 -175 -119 -174 -233 0 -56 5 -74 30 -114 18 -30
48 -60 78 -79 42 -26 59 -30 115 -30 48 1 77 7 107 22 45 24 104 85 104 108 0
25 -79 18 -125 -10 -65 -40 -146 -32 -187 19 -36 44 -29 46 163 46 l182 0 -6
54 c-9 90 -56 164 -127 201 -35 18 -126 27 -160 16z m152 -130 c50 -56 43 -61
-97 -61 -114 0 -125 2 -125 18 0 19 43 65 70 76 8 3 39 4 69 2 46 -2 59 -8 83
-35z"/>
<path d="M2515 1735 c-5 -2 -22 -6 -38 -9 -38 -9 -106 -73 -128 -121 -36 -79
-16 -199 44 -263 30 -33 89 -61 140 -68 41 -6 68 2 150 44 4 2 7 -6 7 -17 0
-19 6 -21 55 -21 l55 0 0 225 0 225 -55 0 c-53 0 -55 -1 -55 -27 l0 -26 -23
21 c-34 32 -111 51 -152 37z m126 -128 c45 -30 61 -63 56 -116 -12 -120 -183
-153 -247 -48 -71 115 77 241 191 164z"/>
<path d="M3189 1726 c-82 -29 -130 -84 -150 -172 -34 -147 106 -303 250 -279
22 4 57 17 76 31 l35 23 0 -25 c0 -24 2 -25 53 -22 l52 3 0 220 0 220 -52 3
c-52 3 -53 2 -53 -24 0 -26 -1 -26 -19 -10 -46 41 -128 55 -192 32z m162 -119
c19 -13 40 -39 48 -61 13 -33 13 -44 0 -79 -21 -61 -68 -90 -138 -84 -47 3
-59 9 -88 40 -27 30 -33 45 -33 81 0 48 33 100 74 116 41 17 102 11 137 -13z"/>
<path d="M3744 1726 c-18 -8 -35 -19 -38 -25 -11 -18 -26 -13 -26 9 0 17 -7
20 -50 20 l-50 0 0 -225 0 -225 49 0 49 0 4 151 c3 151 3 151 31 175 38 32 95
33 125 1 20 -21 22 -35 24 -172 l3 -150 53 -3 52 -3 0 143 c-1 194 -13 240
-81 290 -33 25 -106 32 -145 14z"/>
<path d="M4200 1725 c-100 -32 -163 -117 -163 -220 0 -106 63 -188 171 -222
96 -31 199 8 260 97 34 50 29 60 -27 60 -32 0 -53 -5 -62 -16 -26 -31 -71 -46
-123 -41 -93 9 -145 103 -101 186 36 71 171 81 224 17 13 -15 111 -24 111 -11
0 13 -34 72 -54 93 -52 59 -155 83 -236 57z"/>
<path d="M4689 1725 c-86 -27 -158 -124 -159 -214 0 -139 93 -235 230 -236 53
0 73 5 111 27 50 30 99 81 99 104 0 25 -83 18 -126 -11 -75 -51 -204 -16 -204
54 0 7 57 11 174 11 192 0 188 -1 180 64 -12 97 -83 183 -169 205 -55 14 -79
13 -136 -4z m141 -100 c16 -8 36 -25 44 -37 32 -45 25 -48 -114 -48 -71 0
-130 2 -130 5 0 4 7 19 14 34 29 54 124 78 186 46z"/>
<path d="M952 1718 c3 -7 33 -109 69 -225 l64 -213 46 0 46 0 39 135 c21 74
40 135 44 135 3 0 24 -60 46 -132 l40 -133 46 -3 c38 -2 47 0 52 15 3 10 32
106 66 214 33 108 60 202 60 208 0 8 -16 11 -47 9 l-46 -3 -41 -122 c-23 -67
-44 -124 -47 -128 -4 -3 -21 53 -39 125 l-33 131 -56 -3 -56 -3 -34 -127 c-19
-71 -37 -128 -41 -128 -3 0 -12 21 -18 48 -7 26 -24 84 -38 130 l-25 82 -51 0
c-36 0 -49 -4 -46 -12z"/>
</g>
</svg>
