<?xml version="1.0" standalone="no"?>
<!DOCTYPE svg PUBLIC "-//W3C//DTD SVG 20010904//EN"
 "http://www.w3.org/TR/2001/REC-SVG-20010904/DTD/svg10.dtd">
<svg version="1.0" xmlns="http://www.w3.org/2000/svg"
 width="311.000000pt" height="162.000000pt" viewBox="0 0 311.000000 162.000000"
 preserveAspectRatio="xMidYMid meet">

<g transform="translate(0.000000,162.000000) scale(0.100000,-0.100000)"
fill="#000000" stroke="none">
<path d="M730 1595 c-4 -11 -73 -196 -154 -411 -80 -215 -146 -394 -146 -398
0 -4 43 -5 97 -4 l96 3 69 180 69 180 -5 -80 c-3 -44 -8 -126 -12 -183 l-7
-103 108 3 107 3 149 395 c82 217 152 404 155 415 5 19 0 20 -92 18 l-97 -1
-66 -176 c-36 -96 -70 -178 -75 -183 -5 -4 -6 1 -3 12 3 11 8 74 12 140 3 66
8 139 11 162 l6 42 -107 3 c-100 3 -108 2 -115 -17z"/>
<path d="M1388 1612 l-97 -3 -19 -52 c-37 -97 -280 -742 -287 -759 -7 -16 2
-18 92 -18 l99 0 156 417 c87 229 156 417 155 417 -1 1 -46 0 -99 -2z"/>
<path d="M1524 1609 c-7 -12 -304 -813 -304 -821 0 -5 43 -7 96 -6 l96 3 62
162 c33 89 64 165 69 169 4 4 7 -70 7 -164 l0 -172 142 0 c78 0 139 -2 137 -4
-13 -13 -1104 -299 -1155 -304 -156 -12 -299 68 -340 191 -31 94 -13 246 43
362 l14 30 -21 -25 c-193 -231 -331 -475 -360 -640 -31 -171 43 -293 218 -361
73 -29 224 -31 322 -5 139 37 339 121 1785 746 385 167 716 309 735 318 90 38
-20 14 -402 -88 -227 -61 -426 -115 -441 -120 -30 -10 -30 -7 -10 48 4 9 -22
12 -111 12 -64 0 -116 1 -116 3 0 1 17 47 38 102 l38 100 98 5 98 5 24 64 c13
35 24 67 24 72 0 5 -40 9 -90 9 -49 0 -90 4 -90 9 0 5 14 46 31 90 l31 81 101
0 102 0 23 63 c12 34 22 64 22 67 0 3 -136 4 -302 3 l-303 -2 -93 -113 c-52
-62 -98 -117 -103 -123 -9 -9 11 49 60 173 12 29 21 56 21 60 0 8 -190 10
-196 1z m372 -394 l-141 -375 -7 83 c-3 45 -6 143 -7 217 l-1 135 143 157 c78
86 145 157 148 157 4 1 -57 -168 -135 -374z"/>
</g>
</svg>
