<?xml version="1.0" standalone="no"?>
<!DOCTYPE svg PUBLIC "-//W3C//DTD SVG 20010904//EN"
 "http://www.w3.org/TR/2001/REC-SVG-20010904/DTD/svg10.dtd">
<svg version="1.0" xmlns="http://www.w3.org/2000/svg"
 width="430.000000pt" height="280.000000pt" viewBox="0 0 430.000000 280.000000"
 preserveAspectRatio="xMidYMid meet">

<g transform="translate(0.000000,280.000000) scale(0.100000,-0.100000)"
fill="#000000" stroke="none">
<path d="M1771 2642 c76 -303 62 -632 -38 -853 -155 -340 -485 -566 -1147
-784 -105 -34 -248 -77 -318 -95 -71 -18 -128 -37 -128 -42 0 -5 12 -7 28 -4
68 14 387 57 587 80 1009 115 1990 93 2929 -65 98 -16 181 -27 184 -25 9 9
-306 332 -537 550 -418 395 -863 787 -1196 1055 -201 162 -371 291 -382 291
-5 0 3 -49 18 -108z m574 -787 c256 -221 594 -528 603 -546 1 -3 -30 -2 -70 2
-143 15 -449 29 -740 36 l-296 6 57 77 c106 142 185 320 216 486 24 125 22
121 48 97 12 -11 94 -82 182 -158z"/>
<path d="M130 380 l0 -310 70 0 70 0 0 120 0 120 208 0 c220 0 272 8 297 43
18 26 22 256 4 289 -23 43 -61 48 -364 48 l-285 0 0 -310z m504 194 c20 -8 23
-123 4 -142 -8 -8 -65 -12 -190 -12 l-178 0 0 80 0 80 174 0 c96 0 181 -3 190
-6z"/>
<path d="M1012 383 l3 -308 68 -3 67 -3 0 311 0 310 -70 0 -70 0 2 -307z"/>
<path d="M1470 380 l0 -310 70 0 70 0 0 115 0 115 68 0 67 0 122 -115 123
-115 100 0 c55 0 100 2 100 4 0 2 -60 53 -134 114 l-134 109 69 6 c122 10 139
34 139 194 0 123 -9 150 -60 175 -31 16 -69 18 -317 18 l-283 0 0 -310z m508
188 c7 -7 12 -39 12 -75 0 -51 -3 -64 -19 -73 -12 -6 -92 -10 -190 -10 l-171
0 0 85 0 85 178 0 c125 0 182 -4 190 -12z"/>
<path d="M2415 677 c-3 -7 -4 -145 -3 -307 l3 -295 57 -3 58 -3 2 212 3 213
129 -172 c84 -112 135 -172 146 -172 12 0 59 55 135 156 64 86 119 162 122
170 14 38 18 -4 15 -196 l-3 -210 71 0 70 0 0 310 0 310 -59 0 -58 0 -138
-180 c-76 -99 -141 -180 -145 -180 -4 0 -70 81 -146 180 l-139 179 -58 1 c-37
0 -59 -4 -62 -13z"/>
<path d="M3572 385 c-95 -168 -172 -307 -172 -310 0 -3 33 -5 72 -3 l73 3 35
65 35 65 191 3 190 2 39 -70 38 -70 79 0 c43 0 78 3 78 7 0 4 -78 144 -172
310 l-173 303 -71 0 -70 0 -172 -305z m302 54 c31 -58 56 -109 56 -112 0 -4
-57 -7 -126 -7 -69 0 -124 3 -122 8 25 58 125 229 130 224 3 -4 31 -55 62
-113z"/>
</g>
</svg>
