<?xml version="1.0" standalone="no"?>
<!DOCTYPE svg PUBLIC "-//W3C//DTD SVG 20010904//EN"
 "http://www.w3.org/TR/2001/REC-SVG-20010904/DTD/svg10.dtd">
<svg version="1.0" xmlns="http://www.w3.org/2000/svg"
 width="348.000000pt" height="348.000000pt" viewBox="0 0 348.000000 348.000000"
 preserveAspectRatio="xMidYMid meet">

<g transform="translate(0.000000,348.000000) scale(0.100000,-0.100000)"
fill="#000000" stroke="none">
<path d="M3109 2530 c-62 -33 -123 -111 -165 -211 -42 -100 -103 -178 -154
-199 -49 -20 -139 -7 -209 31 -34 17 -103 68 -154 111 -147 127 -264 200 -367
229 -25 7 -53 22 -62 33 -15 18 -20 19 -38 8 -16 -10 -25 -10 -35 -2 -10 9
-22 1 -54 -32 -22 -24 -41 -48 -41 -54 0 -6 -7 -17 -15 -24 -23 -19 -18 -39
17 -68 20 -18 47 -29 77 -32 38 -4 47 -9 49 -27 3 -20 -1 -22 -55 -21 -90 1
-146 -37 -127 -86 15 -40 84 -39 84 0 0 18 -4 19 86 -17 86 -35 149 -36 184
-4 19 17 21 16 77 -35 79 -73 143 -100 269 -115 135 -17 152 -29 211 -153 36
-76 61 -112 123 -176 75 -78 78 -83 82 -138 6 -71 28 -108 67 -108 27 0 29 3
34 51 4 36 2 60 -8 80 -8 15 -15 38 -15 50 0 12 -18 41 -40 65 -36 39 -40 49
-40 96 0 79 -18 175 -41 220 l-21 41 41 41 c23 24 56 77 79 127 49 106 85 148
167 194 67 37 85 58 85 97 0 49 -32 59 -91 28z"/>
<path d="M1396 1845 l-26 -24 0 -331 0 -331 98 3 97 3 3 303 2 302 25 0 25 0
0 -305 0 -305 100 0 100 0 2 303 3 302 25 0 25 0 3 -302 2 -303 95 0 95 0 0
314 c0 194 -4 325 -10 342 -21 53 -22 53 -341 54 l-296 0 -27 -25z"/>
<path d="M2156 1849 l-26 -20 0 -335 0 -334 94 0 94 0 7 85 c6 81 8 85 31 85
23 0 24 -2 24 -85 l0 -85 100 0 101 0 -3 336 -3 336 -24 19 c-21 17 -41 19
-196 19 -159 0 -174 -2 -199 -21z m222 -247 l2 -172 -30 0 -30 0 0 163 c0 167
5 191 40 185 13 -3 15 -31 18 -176z"/>
<path d="M360 1505 l0 -355 95 0 94 0 3 88 3 87 107 5 c82 4 111 9 124 22 15
15 17 45 17 242 1 205 -1 227 -18 246 -17 19 -30 20 -222 20 l-203 0 0 -355z
m245 90 l0 -170 -27 -3 -28 -3 0 176 0 176 28 -3 27 -3 0 -170z"/>
<path d="M860 1536 l0 -324 26 -31 26 -31 174 0 c172 0 175 0 199 25 l25 24 0
331 0 330 -95 0 -95 0 0 -299 c0 -253 -2 -300 -15 -311 -12 -10 -18 -10 -30 0
-13 11 -15 58 -15 311 l0 299 -100 0 -100 0 0 -324z"/>
</g>
</svg>
