<?xml version="1.0" standalone="no"?>
<!DOCTYPE svg PUBLIC "-//W3C//DTD SVG 20010904//EN"
 "http://www.w3.org/TR/2001/REC-SVG-20010904/DTD/svg10.dtd">
<svg version="1.0" xmlns="http://www.w3.org/2000/svg"
 width="935.000000pt" height="472.000000pt" viewBox="0 0 935.000000 472.000000"
 preserveAspectRatio="xMidYMid meet">

<g transform="translate(0.000000,472.000000) scale(0.100000,-0.100000)"
fill="#000000" stroke="none">
<path d="M137 4624 c-4 -4 -7 -346 -7 -761 l0 -753 190 0 190 0 0 590 c0 523
2 591 15 597 9 3 143 1 298 -4 259 -8 285 -11 323 -30 90 -48 142 -151 131
-263 -8 -96 -56 -170 -138 -215 l-54 -30 -222 -3 -223 -4 0 -154 0 -154 150 0
c162 0 231 -10 300 -45 119 -60 150 -152 150 -447 l0 -168 196 0 195 0 -3 268
-3 268 -33 66 c-20 42 -51 83 -80 109 -45 40 -152 99 -181 99 -7 0 23 18 67
40 98 49 186 138 232 235 41 87 59 216 43 312 -27 157 -139 302 -288 373 -155
75 -140 73 -720 77 -286 2 -524 1 -528 -3z"/>
<path d="M4927 4623 c-4 -3 -7 -345 -7 -760 l0 -753 383 0 c232 0 407 4 443
11 137 25 284 106 377 209 97 107 137 215 137 369 0 114 -19 191 -72 293 -66
127 -169 218 -301 265 -65 24 -90 27 -254 31 l-183 4 0 -160 0 -160 118 -4
c103 -3 123 -7 169 -31 152 -79 180 -312 52 -434 -68 -64 -104 -73 -301 -73
l-178 0 0 600 0 600 -188 0 c-104 0 -192 -3 -195 -7z"/>
<path d="M7997 4623 c-4 -3 -7 -345 -7 -760 l0 -753 195 0 195 0 0 236 0 236
128 -4 c113 -3 132 -6 177 -30 112 -59 146 -128 153 -310 l5 -128 195 0 195 0
-6 138 c-9 193 -40 285 -125 367 -41 40 -142 100 -184 110 -16 4 -28 10 -28
14 0 3 26 16 58 29 114 44 205 138 237 245 9 29 19 103 22 165 l6 112 -192 0
-191 0 0 -52 c0 -77 -25 -180 -54 -226 -54 -85 -106 -106 -271 -107 l-120 0
-3 363 -2 362 -188 0 c-104 0 -192 -3 -195 -7z"/>
<path d="M6990 4304 c-41 -8 -182 -45 -199 -53 -109 -52 -143 -73 -201 -131
-125 -125 -176 -264 -167 -455 7 -170 59 -288 176 -400 135 -130 312 -195 532
-195 133 0 235 22 344 75 229 110 345 294 345 545 0 178 -53 311 -170 429
-119 121 -276 179 -500 186 -74 2 -146 2 -160 -1z m263 -328 c118 -57 181
-157 181 -286 1 -93 -32 -167 -100 -230 -67 -61 -124 -84 -214 -84 -93 -1
-167 31 -230 100 -62 67 -84 124 -85 214 0 65 4 84 33 142 75 154 263 219 415
144z"/>
<path d="M2277 4275 c-63 -14 -72 -17 -162 -61 -116 -56 -230 -199 -277 -347
-26 -83 -28 -228 -4 -317 43 -159 154 -300 293 -373 122 -64 149 -67 611 -67
l413 0 -3 158 -3 157 -380 5 c-424 6 -416 4 -490 78 -74 74 -99 167 -71 264
23 81 64 130 137 167 l62 31 183 0 182 0 -115 -192 c-63 -106 -118 -199 -120
-205 -4 -10 36 -13 179 -13 l184 0 54 86 c30 47 85 133 123 190 l67 105 0 175
0 174 -402 -1 c-286 -1 -420 -5 -461 -14z"/>
<path d="M3795 4275 c-96 -22 -143 -42 -210 -90 -83 -59 -134 -119 -185 -215
-90 -175 -92 -355 -4 -538 68 -143 227 -269 385 -307 51 -12 144 -15 472 -15
l407 0 0 160 0 160 -367 0 c-278 1 -377 4 -405 14 -97 35 -178 149 -178 251 0
112 54 199 154 246 60 29 64 29 239 29 97 0 177 -2 177 -5 0 -6 -201 -344
-227 -382 l-15 -23 185 0 185 0 24 33 c13 17 70 105 126 193 l102 162 0 171 0
171 -402 -1 c-297 -1 -419 -5 -463 -14z"/>
<path d="M8840 2485 c-437 -33 -567 -43 -1190 -95 -69 -6 -188 -17 -265 -25
-77 -8 -216 -21 -310 -30 -640 -61 -1271 -143 -1812 -237 -228 -39 -284 -53
-257 -64 17 -7 144 -81 359 -209 110 -65 218 -128 240 -140 22 -12 109 -63
194 -114 l155 -93 250 100 c296 117 640 245 891 331 99 34 195 68 213 76 18 8
39 15 47 15 8 0 77 20 154 45 261 83 823 244 976 279 108 25 700 177 704 182
6 5 10 5 -349 -21z"/>
<path d="M615 2451 c-24 -6 -7 -11 90 -30 302 -59 378 -73 500 -97 129 -24
194 -37 330 -67 39 -9 82 -18 95 -21 70 -13 157 -34 575 -137 160 -40 324 -80
365 -90 128 -30 256 -65 495 -134 127 -37 244 -71 260 -75 211 -58 786 -249
1245 -413 69 -25 141 -50 160 -57 35 -12 219 -82 275 -105 93 -38 177 -71 320
-126 136 -52 402 -160 470 -189 11 -5 119 -50 240 -100 478 -200 587 -246 771
-326 106 -46 199 -84 207 -84 9 0 18 -4 21 -9 3 -5 17 -12 31 -15 14 -4 68
-27 120 -51 52 -25 99 -45 104 -45 5 0 22 -7 38 -15 37 -19 272 -121 348 -151
56 -22 58 -22 35 -4 -14 12 -41 30 -60 40 -19 11 -75 46 -125 78 -49 32 -126
79 -170 105 -44 27 -87 53 -95 58 -99 61 -497 298 -535 319 -16 9 -41 23 -55
32 -14 8 -137 82 -275 164 -137 81 -331 196 -430 254 -99 59 -243 143 -320
187 -77 45 -225 131 -330 193 -104 62 -212 125 -240 140 -27 14 -99 56 -160
92 -159 95 -847 488 -935 535 -41 22 -120 64 -175 94 l-100 54 -1530 1 c-841
1 -1543 -1 -1560 -5z"/>
<path d="M3055 1563 c-558 -215 -798 -324 -1145 -521 -211 -119 -480 -309
-635 -447 -154 -138 -415 -413 -415 -439 0 -3 323 -6 718 -6 l718 0 39 52 c55
72 245 259 379 372 122 103 352 266 516 366 139 84 454 243 613 310 70 29 124
57 120 60 -5 4 -62 24 -128 45 -66 20 -181 56 -255 80 -213 69 -466 145 -476
144 -5 -1 -27 -8 -49 -16z"/>
<path d="M4045 1087 c-385 -197 -644 -376 -936 -648 -91 -84 -229 -235 -253
-277 -6 -9 126 -12 643 -12 l650 0 70 99 c162 229 339 399 659 634 45 33 82
63 82 66 0 6 -89 40 -430 165 -113 42 -218 78 -235 81 -24 4 -72 -16 -250
-108z"/>
</g>
</svg>
